<svg width="17" height="13" viewBox="0 0 17 13" fill="none" xmlns="http://www.w3.org/2000/svg">
<path d="M1.73097 0.163449C1.51304 0.381381 1.51304 0.734718 1.73097 0.95265L13.6149 12.8366C13.8328 13.0545 14.1861 13.0545 14.4041 12.8366C14.622 12.6186 14.622 12.2653 14.4041 12.0473L2.52017 0.163449C2.30224 -0.0544829 1.9489 -0.0544829 1.73097 0.163449Z" fill="#6A6A6A"/>
<path d="M0 6.43119C0 5.95825 0.947501 4.57145 2.47323 3.32246L3.24692 4.1319C3.2012 4.16875 3.15592 4.20584 3.1111 4.24313C2.43354 4.80688 1.89445 5.39026 1.53438 5.86784C1.35349 6.10776 1.23028 6.30445 1.15792 6.44455C1.1457 6.4682 1.13592 6.48834 1.12814 6.50511L1.12954 6.51104C1.1425 6.56493 1.16549 6.63728 1.20354 6.72801C1.28042 6.91136 1.40592 7.13928 1.58782 7.40019C1.95181 7.92228 2.4988 8.51515 3.19102 9.07357C4.58694 10.1997 6.43984 11.0816 8.37074 11.0816C8.83888 11.0816 9.29748 11.0269 9.74228 10.9274L10.6211 11.8469C9.91103 12.0684 9.15663 12.1977 8.37074 12.1977C3.85044 12.1977 0 8.10534 0 6.43119Z" fill="#6A6A6A"/>
<path d="M5.20846 6.80322C5.20846 6.60993 5.2258 6.42069 5.25901 6.23697L8.79578 9.93718C8.65676 9.95586 8.51487 9.9655 8.37074 9.9655C6.62426 9.9655 5.20846 8.5497 5.20846 6.80322Z" fill="#6A6A6A"/>
<path d="M7.60857 3.7334L11.4031 7.70326C11.4876 7.418 11.533 7.11591 11.533 6.80322C11.533 5.05674 10.1172 3.64094 8.37074 3.64094C8.10796 3.64094 7.85268 3.67299 7.60857 3.7334Z" fill="#6A6A6A"/>
<path d="M13.3301 9.03263C13.2119 9.13613 13.09 9.23772 12.9646 9.3369L13.7387 10.1469C15.3669 8.83327 16.3694 7.23012 16.3694 6.43119C16.3694 5.12907 12.705 1.03671 8.18472 1.03671C7.24879 1.03671 6.34956 1.2281 5.51194 1.53988L6.36345 2.43074C6.95222 2.25424 7.56313 2.15281 8.18472 2.15281C10.1131 2.15281 11.9202 3.03254 13.2746 4.11692C13.9462 4.65461 14.4748 5.21816 14.8251 5.69748C15.0006 5.93762 15.1191 6.14002 15.1896 6.29278C15.2275 6.37514 15.2437 6.42626 15.2503 6.4495C15.2444 6.48323 15.2269 6.56193 15.1751 6.6911C15.104 6.86852 14.9878 7.09287 14.8195 7.35176C14.483 7.86948 13.9763 8.46706 13.3301 9.03263Z" fill="#6A6A6A"/>
</svg>
