<svg width="20" height="20" viewBox="0 0 20 20" fill="none" xmlns="http://www.w3.org/2000/svg">
<path d="M18.7439 13.7206L18.1043 13.3289V13.3289L18.7439 13.7206ZM17.7894 15.2794L18.429 15.6711V15.6711L17.7894 15.2794ZM1.25609 6.27942L0.61648 5.88775H0.61648L1.25609 6.27942ZM2.21064 4.72057L2.85025 5.11223L2.21064 4.72057ZM4.81852 4.06172L5.1771 3.403L5.1771 3.403L4.81852 4.06172ZM1.95487 8.73826L1.59629 9.39699H1.59629L1.95487 8.73826ZM15.1815 15.9383L14.8229 16.597L14.8229 16.597L15.1815 15.9383ZM18.0451 11.2617L17.6866 11.9204V11.9205L18.0451 11.2617ZM2.21064 15.2794L1.57103 15.6711L1.57103 15.6711L2.21064 15.2794ZM1.25609 13.7206L1.8957 13.3289L1.8957 13.3289L1.25609 13.7206ZM17.7894 4.72058L18.429 4.32892L17.7894 4.72058ZM18.7439 6.27943L18.1043 6.67109V6.67109L18.7439 6.27943ZM18.0451 8.73828L18.4037 9.397L18.0451 8.73828ZM15.1815 4.06174L15.5401 4.72046V4.72046L15.1815 4.06174ZM1.95487 11.2617L2.31345 11.9205H2.31345L1.95487 11.2617ZM4.81851 15.9383L4.45994 15.2795L4.45993 15.2795L4.81851 15.9383ZM15.08 4.11698L14.7214 3.45825L15.08 4.11698ZM4.92 4.11697L4.56142 4.77569L4.56142 4.77569L4.92 4.11697ZM15.08 15.883L15.4386 15.2243L15.4386 15.2243L15.08 15.883ZM4.92 15.883L5.27858 16.5418L5.27858 16.5418L4.92 15.883ZM9.04545 1.75H10.9545V0.25H9.04545V1.75ZM10.9545 18.25H9.04545V19.75H10.9545V18.25ZM9.04545 18.25C8.36311 18.25 7.88635 17.7389 7.88635 17.2H6.38635C6.38635 18.6493 7.61906 19.75 9.04545 19.75V18.25ZM12.1136 17.2C12.1136 17.7389 11.6369 18.25 10.9545 18.25V19.75C12.3809 19.75 13.6136 18.6493 13.6136 17.2H12.1136ZM10.9545 1.75C11.6369 1.75 12.1136 2.26107 12.1136 2.8H13.6136C13.6136 1.35071 12.3809 0.25 10.9545 0.25V1.75ZM9.04545 0.25C7.61906 0.25 6.38635 1.35071 6.38635 2.8H7.88635C7.88635 2.26107 8.36311 1.75 9.04545 1.75V0.25ZM18.1043 13.3289L17.1498 14.8878L18.429 15.6711L19.3835 14.1122L18.1043 13.3289ZM1.8957 6.67108L2.85025 5.11223L1.57103 4.32891L0.61648 5.88775L1.8957 6.67108ZM2.85025 5.11223C3.15889 4.6082 3.88055 4.40506 4.45993 4.72045L5.1771 3.403C3.93027 2.72428 2.31676 3.11109 1.57103 4.32891L2.85025 5.11223ZM2.31345 8.07954C1.75746 7.77688 1.6043 7.14696 1.8957 6.67108L0.61648 5.88775C-0.146482 7.13373 0.326062 8.70553 1.59629 9.39699L2.31345 8.07954ZM17.1498 14.8878C16.8411 15.3918 16.1195 15.5949 15.5401 15.2795L14.8229 16.597C16.0697 17.2757 17.6832 16.8889 18.429 15.6711L17.1498 14.8878ZM19.3835 14.1122C20.1465 12.8663 19.6739 11.2945 18.4037 10.603L17.6866 11.9205C18.2425 12.2231 18.3957 12.853 18.1043 13.3289L19.3835 14.1122ZM2.85025 14.8878L1.8957 13.3289L0.616479 14.1122L1.57103 15.6711L2.85025 14.8878ZM17.1498 5.11225C17.4133 5.54271 17.652 5.93242 17.8247 6.21451C17.9111 6.35556 17.981 6.46971 18.0293 6.54859C18.0534 6.58803 18.0722 6.61865 18.0849 6.63942C18.0913 6.6498 18.0961 6.65772 18.0994 6.66304C18.101 6.6657 18.1022 6.66771 18.1031 6.66906C18.1035 6.66973 18.1038 6.67024 18.104 6.67058C18.1041 6.67075 18.1042 6.67088 18.1042 6.67096C18.1042 6.671 18.1043 6.67104 18.1043 6.67106C18.1043 6.67107 18.1043 6.67108 18.1043 6.67108C18.1043 6.67109 18.1043 6.67109 18.7439 6.27943C19.3835 5.88777 19.3835 5.88777 19.3835 5.88776C19.3835 5.88776 19.3835 5.88775 19.3835 5.88774C19.3835 5.88772 19.3835 5.88768 19.3834 5.88764C19.3834 5.88756 19.3833 5.88743 19.3832 5.88726C19.383 5.88692 19.3827 5.88641 19.3823 5.88574C19.3815 5.88439 19.3802 5.88238 19.3786 5.87972C19.3753 5.8744 19.3705 5.86648 19.3641 5.8561C19.3514 5.83533 19.3327 5.80471 19.3085 5.76527C19.2602 5.68639 19.1903 5.57224 19.1039 5.43119C18.9312 5.1491 18.6926 4.75939 18.429 4.32892L17.1498 5.11225ZM18.1043 6.67109C18.3957 7.14697 18.2425 7.77689 17.6866 8.07955L18.4037 9.397C19.6739 8.70554 20.1465 7.13374 19.3835 5.88777L18.1043 6.67109ZM15.5401 4.72046C16.1195 4.40507 16.8411 4.60822 17.1498 5.11225L18.429 4.32892C17.6832 3.1111 16.0697 2.72429 14.8229 3.40301L15.5401 4.72046ZM1.8957 13.3289C1.6043 12.853 1.75746 12.2231 2.31345 11.9205L1.59629 10.603C0.32606 11.2945 -0.146483 12.8663 0.616479 14.1122L1.8957 13.3289ZM1.57103 15.6711C2.31675 16.8889 3.93027 17.2757 5.1771 16.597L4.45993 15.2795C3.88055 15.5949 3.15889 15.3918 2.85025 14.8878L1.57103 15.6711ZM15.4386 4.7757L15.5401 4.72046L14.8229 3.40301L14.7214 3.45825L15.4386 4.7757ZM4.45993 4.72045L4.56142 4.77569L5.27858 3.45824L5.1771 3.403L4.45993 4.72045ZM15.5401 15.2795L15.4386 15.2243L14.7214 16.5417L14.8229 16.597L15.5401 15.2795ZM4.56142 15.2243L4.45994 15.2795L5.17709 16.597L5.27858 16.5418L4.56142 15.2243ZM1.59629 9.39699C2.07404 9.65705 2.07404 10.3429 1.59629 10.603L2.31345 11.9205C3.83498 11.0922 3.83498 8.90779 2.31345 8.07954L1.59629 9.39699ZM5.27858 16.5418C5.77798 16.2699 6.38635 16.6314 6.38635 17.2H7.88635C7.88635 15.4934 6.06035 14.4084 4.56142 15.2243L5.27858 16.5418ZM13.6136 17.2C13.6136 16.6314 14.222 16.2699 14.7214 16.5417L15.4386 15.2243C13.9397 14.4083 12.1136 15.4934 12.1136 17.2H13.6136ZM18.4037 10.603C17.926 10.3429 17.926 9.65706 18.4037 9.397L17.6866 8.07955C16.165 8.9078 16.165 11.0922 17.6866 11.9204L18.4037 10.603ZM4.56142 4.77569C6.06035 5.59165 7.88635 4.50663 7.88635 2.8H6.38635C6.38635 3.3686 5.77798 3.7301 5.27858 3.45824L4.56142 4.77569ZM14.7214 3.45825C14.222 3.73011 13.6136 3.36861 13.6136 2.8H12.1136C12.1136 4.50663 13.9397 5.59166 15.4386 4.7757L14.7214 3.45825ZM12.25 10C12.25 11.2426 11.2426 12.25 10 12.25V13.75C12.0711 13.75 13.75 12.0711 13.75 10H12.25ZM10 12.25C8.75737 12.25 7.75001 11.2426 7.75001 10H6.25001C6.25001 12.0711 7.92894 13.75 10 13.75V12.25ZM7.75001 10C7.75001 8.75736 8.75737 7.75 10 7.75V6.25C7.92894 6.25 6.25001 7.92893 6.25001 10H7.75001ZM10 7.75C11.2426 7.75 12.25 8.75736 12.25 10H13.75C13.75 7.92893 12.0711 6.25 10 6.25V7.75Z" fill="currentColor"/>
</svg>
