<svg width="20" height="22" viewBox="0 0 20 22" fill="none" xmlns="http://www.w3.org/2000/svg">
<path d="M1 5H3H19" stroke="white" stroke-width="2" stroke-linecap="round" stroke-linejoin="round"/>
<path d="M18 5C18 4.44772 17.5523 4 17 4C16.4477 4 16 4.44772 16 5H18ZM4 5C4 4.44772 3.55228 4 3 4C2.44772 4 2 4.44772 2 5H4ZM5 5C5 5.55228 5.44772 6 6 6C6.55228 6 7 5.55228 7 5H5ZM13 5C13 5.55228 13.4477 6 14 6C14.5523 6 15 5.55228 15 5H13ZM16 5V19H18V5H16ZM16 19C16 19.5523 15.5523 20 15 20V22C16.6569 22 18 20.6569 18 19H16ZM15 20H5V22H15V20ZM5 20C4.44772 20 4 19.5523 4 19H2C2 20.6569 3.34315 22 5 22V20ZM4 19V5H2V19H4ZM7 5V3H5V5H7ZM7 3C7 2.44772 7.44772 2 8 2V0C6.34315 0 5 1.34315 5 3H7ZM8 2H12V0H8V2ZM12 2C12.5523 2 13 2.44772 13 3H15C15 1.34315 13.6569 0 12 0V2ZM13 3V5H15V3H13Z" fill="white"/>
<path d="M8 10V16" stroke="white" stroke-width="2" stroke-linecap="round" stroke-linejoin="round"/>
<path d="M12 10V16" stroke="white" stroke-width="2" stroke-linecap="round" stroke-linejoin="round"/>
</svg>
