<svg width="24" height="24" viewBox="0 0 24 24" fill="none" xmlns="http://www.w3.org/2000/svg">
<path d="M18.7043 18.2963C19.3233 18.9153 19.3233 19.9183 18.7043 20.5363C18.0853 21.1553 17.0823 21.1553 16.4642 20.5363C15.8452 19.9173 15.8452 18.9143 16.4642 18.2963C17.0833 17.6773 18.0863 17.6773 18.7043 18.2963" stroke="white" stroke-width="1.5" stroke-linecap="round" stroke-linejoin="round"/>
<path d="M7.70388 18.296C8.32288 18.915 8.32288 19.918 7.70388 20.536C7.08488 21.155 6.08188 21.155 5.46388 20.536C4.84588 19.917 4.84488 18.914 5.46388 18.296C6.08288 17.678 7.08488 17.677 7.70388 18.296" stroke="white" stroke-width="1.5" stroke-linecap="round" stroke-linejoin="round"/>
<path d="M10 4H14C14.552 4 15 4.448 15 5V15H2" stroke="white" stroke-width="1.5" stroke-linecap="round" stroke-linejoin="round"/>
<path d="M5 19.416H3C2.448 19.416 2 18.968 2 18.416V13" stroke="white" stroke-width="1.5" stroke-linecap="round" stroke-linejoin="round"/>
<path d="M15 7H19.323C19.732 7 20.1 7.249 20.251 7.629L21.857 11.643C21.951 11.879 22 12.131 22 12.385V18.333C22 18.885 21.552 19.333 21 19.333H19.169" stroke="white" stroke-width="1.5" stroke-linecap="round" stroke-linejoin="round"/>
<path d="M15.9999 19.42H8.16992" stroke="white" stroke-width="1.5" stroke-linecap="round" stroke-linejoin="round"/>
<path d="M22 14H18V10H21.2" stroke="white" stroke-width="1.5" stroke-linecap="round" stroke-linejoin="round"/>
<path d="M2 4H7" stroke="white" stroke-width="1.5" stroke-linecap="round" stroke-linejoin="round"/>
<path d="M2 7H5" stroke="white" stroke-width="1.5" stroke-linecap="round" stroke-linejoin="round"/>
<path d="M3 10H2" stroke="white" stroke-width="1.5" stroke-linecap="round" stroke-linejoin="round"/>
</svg>
